PathFileType	4	(X/Y/Z)	C:/Users/opensim2020/Desktop/walking_exp_matlab/subject03_walking14_straight_03.trc	
DataRate	CameraRate	NumFrames	NumMarkers	Units	OrigDataRate	OrigDataStartFrame	OrigNumFrames	
100.00	100.00	5	47	mm	100.00	1582	215	
Frame#	Time	LFHD			RFHD			LBHD			RBHD			C7			T10			CLAV			STRN			RBAK			LSHO			LUPA			LELB			LFRM			LWRA			LWRB			LFIN			RSHO			RUPA			RELB			RFRM			RWRA			RWRB			RFIN			LASI			RASI			LPSI			RPSI			LTHI			LKNE			LTIB			LANK			LHEE			LTOE			RTHI			RKNE			RTIB			RANK			RHEE			RTOE			*39			*40			*41			*42			*43			*44			*45			*46			
		X1	Y1	Z1	X2	Y2	Z2	X3	Y3	Z3	X4	Y4	Z4	X5	Y5	Z5	X6	Y6	Z6	X7	Y7	Z7	X8	Y8	Z8	X9	Y9	Z9	X10	Y10	Z10	X11	Y11	Z11	X12	Y12	Z12	X13	Y13	Z13	X14	Y14	Z14	X15	Y15	Z15	X16	Y16	Z16	X17	Y17	Z17	X18	Y18	Z18	X19	Y19	Z19	X20	Y20	Z20	X21	Y21	Z21	X22	Y22	Z22	X23	Y23	Z23	X24	Y24	Z24	X25	Y25	Z25	X26	Y26	Z26	X27	Y27	Z27	X28	Y28	Z28	X29	Y29	Z29	X30	Y30	Z30	X31	Y31	Z31	X32	Y32	Z32	X33	Y33	Z33	X34	Y34	Z34	X35	Y35	Z35	X36	Y36	Z36	X37	Y37	Z37	X38	Y38	Z38	X39	Y39	Z39	X40	Y40	Z40	X41	Y41	Z41	X42	Y42	Z42	X43	Y43	Z43	X44	Y44	Z44	X45	Y45	Z45	X46	Y46	Z46	X47	Y47	Z47	

1	0.000	1301.89197	-1374.92139	1610.62878	1433.25049	-1360.46899	1615.64368	1319.99719	-1491.66650	1545.50537	1449.39722	-1473.67249	1551.19153	1374.26489	-1506.86243	1409.57507	1389.96484	-1579.55908	1106.83557	1368.63354	-1389.93994	1324.02258	1360.33948	-1372.61523	1151.43896	1481.76685	-1565.92334	1246.06042	1216.82678	-1435.23706	1364.73535	1158.84888	-1441.58301	1164.07715	1167.71997	-1434.37366	1039.08679	1190.86670	-1428.80884	910.07220	1226.17480	-1447.02917	792.35406	1174.00769	-1434.02271	795.97711	1188.11841	-1450.72717	711.09686	1531.06458	-1417.91589	1353.85193	1611.02905	-1437.85999	1135.16479	1630.08398	-1435.71155	1023.41882	1640.57410	-1433.63940	886.86035	1613.01758	-1411.64722	788.07947	1654.04309	-1445.81445	788.48096	1657.55469	-1419.80481	722.14026	1262.58606	-1462.40283	915.14825	1494.01025	-1422.61975	933.79797	1337.47461	-1609.23572	963.21887	1481.66003	-1583.45862	976.29907	1249.51196	-1583.42761	626.59204	1295.67773	-1605.43896	455.30835	1302.08862	-1696.54797	277.43433	1348.24524	-1790.81372	92.25190	1392.66638	-1789.64685	38.52171	1340.60803	-1603.24219	34.63465	1570.36682	-1398.98950	665.21222	1542.79199	-1321.72107	503.14117	1559.62585	-1338.32080	309.84253	1527.87988	-1336.97717	90.61611	1478.63879	-1378.93433	52.75986	1502.37793	-1197.18335	61.32470	1349.61108	-1749.48633	71.30200																					 
2	0.010	1303.70447	-1368.67224	1609.14514	1435.13232	-1354.37817	1614.06714	1321.60181	-1485.07971	1543.66125	1451.00159	-1467.29126	1549.11462	1374.94763	-1500.21216	1408.31189	1390.13965	-1573.68884	1105.55334	1369.93384	-1383.32629	1322.65881	1361.70972	-1366.17847	1150.15271	1481.93640	-1560.16858	1244.69336	1218.09485	-1427.83569	1363.50122	1160.66479	-1429.27100	1162.97314	1169.29431	-1423.70532	1037.80554	1192.81714	-1417.63416	908.60242	1227.86536	-1434.31018	791.64441	1176.53503	-1419.91711	795.04779	1191.48865	-1433.42554	710.13556	1532.28174	-1412.10510	1352.03589	1612.07971	-1433.60913	1133.56604	1631.67725	-1432.37720	1021.87299	1642.94312	-1432.15881	885.36670	1616.33044	-1411.21338	786.19427	1656.88672	-1445.88000	787.16479	1661.05969	-1421.43140	720.39948	1263.03674	-1455.85388	913.95496	1494.72827	-1416.57837	932.42511	1337.66614	-1602.99524	961.55328	1481.89709	-1577.58801	974.28546	1249.37195	-1577.15015	625.34167	1295.26208	-1600.91162	454.13049	1301.77368	-1693.99158	277.35040	1347.80420	-1789.10193	92.48811	1392.77661	-1789.67896	39.80005	1340.56628	-1602.98401	34.43438	1571.17493	-1392.96875	663.37683	1543.05408	-1314.77112	502.19858	1560.05286	-1325.94116	308.79904	1528.38916	-1317.17603	89.64555	1479.02551	-1357.99915	50.91226	1502.68909	-1176.46082	63.84187	1349.41284	-1749.03503	71.73635	1365.01636	-1454.20752	1654.42554																		 
3	0.020	1305.56689	-1362.37354	1607.80273	1437.02441	-1347.85376	1612.23279	1323.22949	-1478.39929	1541.93152	1452.66650	-1460.73743	1547.09241	1375.76086	-1493.35864	1406.94873	1390.47449	-1567.43127	1104.25269	1371.30151	-1376.69788	1320.93213	1362.87427	-1359.82239	1148.34998	1482.13989	-1554.12524	1243.27100	1219.30701	-1420.25452	1362.01819	1161.99194	-1418.95251	1162.10767	1170.64771	-1412.53271	1036.76221	1194.59338	-1404.58813	907.92200	1229.12341	-1421.25513	791.04718	1178.63025	-1405.47546	794.23071	1194.91504	-1415.67297	709.51086	1533.52051	-1406.18909	1350.31897	1613.34448	-1429.13306	1131.91382	1633.24573	-1428.79639	1020.33484	1645.22302	-1430.34082	883.88068	1619.46240	-1410.36792	784.29358	1659.68457	-1445.63721	785.95276	1664.16772	-1422.40820	718.41748	1263.25977	-1448.98499	912.93188	1495.20483	-1410.14734	931.00293	1338.03088	-1596.54944	959.81409	1482.29028	-1571.33826	972.22131	1249.38184	-1571.24414	624.55750	1295.13538	-1596.45020	453.34885	1301.59949	-1691.36987	277.33011	1347.50378	-1787.32507	92.78795	1392.51331	-1789.89502	40.99783	1340.59521	-1602.72302	34.34829	1571.93213	-1386.89709	661.35809	1543.37988	-1307.67346	500.85403	1560.42749	-1313.61499	307.80341	1529.04614	-1297.99353	89.02687	1479.29187	-1337.55664	49.03524	1503.82861	-1156.53516	66.78382	1349.39539	-1748.87830	72.61224																					 
4	0.030	1307.54126	-1355.34314	1606.29724	1439.08154	-1341.26379	1610.60144	1324.89221	-1471.43542	1540.11072	1454.37952	-1453.93274	1545.01563	1376.76184	-1486.36060	1405.50122	1390.80017	-1560.93054	1102.78503	1372.60852	-1369.79407	1319.35193	1364.13464	-1353.11719	1146.78406	1482.37769	-1547.84753	1241.76672	1220.62720	-1412.23596	1360.39343	1162.59412	-1411.31958	1160.60413	1171.52173	-1401.58936	1035.68921	1195.79358	-1392.41235	906.66449	1230.25049	-1407.97595	790.45630	1180.59424	-1390.80957	793.42023	1198.20227	-1397.70813	709.26398	1534.85962	-1399.94592	1348.52405	1614.59705	-1424.35388	1130.25000	1634.76636	-1424.95435	1018.76117	1647.46277	-1428.09119	882.37683	1622.56543	-1409.05005	782.29791	1662.64673	-1444.91187	784.81091	1667.26440	-1423.17822	716.76978	1263.63916	-1442.05237	911.78210	1495.78564	-1403.75903	929.44476	1338.54590	-1589.88293	957.97107	1482.71741	-1564.86670	970.10168	1249.39307	-1564.72241	623.17206	1294.75562	-1591.90808	452.27634	1301.23853	-1688.68506	277.38187	1347.01672	-1785.48474	93.15985	1392.15747	-1789.52551	41.83650	1340.53333	-1602.55286	34.14896	1572.75659	-1379.50452	659.00641	1543.69653	-1300.70398	499.54758	1560.80603	-1301.53564	307.02365	1529.68396	-1279.69165	88.86042	1479.88184	-1317.80774	47.70682	1505.40845	-1137.47278	69.96884	1348.84680	-1748.22437	73.14440	1368.94299	-1441.27930	1650.77356																		 
5	0.040	1309.46216	-1348.54675	1604.95471	1440.94629	-1334.44653	1608.85718	1326.58533	-1464.37292	1538.44641	1456.12537	-1446.96582	1543.01404	1377.86719	-1479.28320	1404.02026	1391.20166	-1554.18738	1101.31628	1374.02698	-1362.59363	1317.91199	1365.55981	-1345.15417	1145.94141	1482.71936	-1541.32935	1240.19812	1222.15515	-1404.33740	1359.02588	1164.79199	-1398.01001	1160.63672	1172.34631	-1390.68640	1034.74744	1196.94080	-1379.48132	906.03369	1233.36536	-1394.87415	789.68042	1182.44482	-1375.80933	792.89178	1201.33484	-1379.61121	709.26318	1536.17273	-1393.70325	1346.75928	1615.94849	-1419.37817	1128.73022	1636.63953	-1421.17822	1017.42712	1649.71362	-1425.68762	881.05530	1625.35498	-1407.57922	780.50031	1665.34558	-1443.80896	783.71802	1669.89526	-1423.17395	714.61798	1263.95874	-1434.93823	910.51306	1496.23523	-1396.88965	927.86163	1339.09863	-1583.05310	956.18829	1483.21411	-1558.12964	968.03607	1249.41260	-1559.33167	622.78833	1294.46643	-1587.65857	451.55200	1300.89844	-1686.13025	277.49869	1346.55090	-1783.77466	93.59679	1391.01892	-1789.57813	42.76405	1340.47290	-1602.47888	34.02742	1573.63757	-1375.27771	657.19958	1543.99695	-1293.39941	498.30286	1561.20715	-1289.73779	306.40131	1530.22827	-1262.17114	88.68448	1479.97559	-1298.86914	46.60297	1507.55188	-1119.40247	73.36915	1348.63501	-1748.25342	74.32991	1370.68933	-1434.35632	1648.92896																		 
